<?xml version="1.0" encoding="utf-8"?>
<!-- Generator: Adobe Illustrator 20.1.0, SVG Export Plug-In . SVG Version: 6.00 Build 0)  -->
<svg version="1.1" id="Livello_1" xmlns="http://www.w3.org/2000/svg" xmlns:xlink="http://www.w3.org/1999/xlink" x="0px" y="0px"
	 viewBox="0 0 1134 340" style="enable-background:new 0 0 1134 340;" xml:space="preserve">
<style type="text/css">
	.st0{fill:#1ED760;}
	.st1{fill:#FFFFFF;}
</style>
<title>Spotify</title>
<g>
	<path class="st0" d="M176,4C84,4,8,79,8,171s76,168,168,168s168-76,168-168S268,4,176,4z M238,249c-39-24-89-30-147-17
		c-14,2-16-18-4-20c64-15,118-8,162,19C260,238,249,255,238,249z M255,204c-45-28-114-36-167-20c-17,5-23-21-7-25
		c61-18,136-9,188,23C283,191,269,213,255,204z M275,152c-54-32-144-35-195-19c-17,6-28-23-9-30c59-18,159-15,221,22
		C309,134,293,162,275,152z"/>
</g>
<path class="st1" d="M459,224c-17,0-33-6-47-20c-1,0-1,1-1,1l-16,19c-1,1-1,2,0,3c18,16,40,24,64,24c34,0,55-19,55-47
	c0-24-15-37-50-46c-29-7-34-12-34-22s10-16,23-16s25,5,39,15c0,0,1,1,2,1s1-1,1-1l14-20c1-1,1-1,0-2c-16-13-35-20-56-20
	c-31,0-53,19-53,46c0,29,20,38,52,46c28,6,32,12,32,22C484,218,474,224,459,224z"/>
<path class="st1" d="M590,130c-15,0-26,5-36,17v-13c0-1-1-2-2-2h-26c-1,0-2,1-2,2v147c0,1,1,2,2,2h26c1,0,2-1,2-2v-46
	c10,11,21,16,36,16c27,0,54-21,54-61S617,130,590,130z M584,225c-18,0-31-15-31-35s13-34,31-34s30,14,30,34S602,225,584,225z"/>
<path class="st1" d="M715,130c-35,0-63,27-63,61s27,60,62,60s62-27,62-61S750,130,715,130z M715,225c-19,0-33-15-33-35s13-34,32-34
	s33,15,33,35S734,225,715,225z"/>
<path class="st1" d="M822,132v-29c0-1,0-2-1-2h-26c-1,0-2,1-2,2v29h-13c-1,0-2,1-2,2v22c0,1,1,2,2,2h13v58c0,23,11,35,34,35
	c9,0,18-2,25-6c1,0,1-1,1-2v-21c0-1,0-2-1-2h-2c-5,3-11,4-16,4c-8,0-12-4-12-12v-54h30c1,0,2-1,2-2v-22c0-1-1-2-2-2H822z"/>
<path class="st1" d="M951,129c0-11,4-15,13-15c5,0,10,0,15,2h1c0,0,1-1,1-2V93c0-1,0-2-1-2c-5-2-12-3-22-3c-24,0-36,14-36,39v5h-13
	c-1,0-2,1-2,2v22c0,1,1,2,2,2h13v89c0,1,1,2,2,2h26c1,0,1-1,1-2v-89h25l37,89c-4,9-8,11-14,11c-5,0-10-1-15-4h-1l-1,1l-9,19
	c0,1,0,3,1,3c9,5,17,7,27,7c19,0,30-9,39-33l45-116v-2c0-1-1-1-2-1h-27c-1,0-1,1-1,2l-28,78l-30-78c0-1-1-2-2-2h-44V129z"/>
<path class="st1" d="M868,132c-1,0-2,1-2,2v113c0,1,1,2,2,2h26c1,0,1-1,1-2V134c0-1,0-2-1-2H868z"/>
<path class="st1" d="M862,99c0,10,9,19,19,19s18-9,18-19s-8-18-18-18S862,89,862,99z"/>
<path class="st1" d="M1107,132c-10,0-18,8-18,18s8,18,18,18s19-8,19-18S1117,132,1107,132z M1107,166c-9,0-16-7-16-16s7-16,16-16
	s17,7,17,16S1116,166,1107,166z"/>
<path class="st1" d="M1111,152c3-1,5-3,5-6c0-4-4-6-8-6h-8v19h4v-6h4l4,6h5L1111,152z M1104,149v-6h4c2,0,4,1,4,3s-2,3-4,3H1104z"/>
</svg>
